# xmcd
#
# Track frame offsets:
#	150
#	16381
#	34454
#	53375
#	67460
#	86749
#	99263
#	121467
#	135487
#	151271
#	164883
#	181615
#	198253
#	216807
#	230315
#	247681
#	264441
#	279938
#	299540
#
# Disc length: 4185 seconds
#
# Revision: 1
# Processed by: cddbd v1.5.1PL2 Copyright (c) Steve Scherf et al.
# Submitted via: EasyCDDAExtractor 6.5.7.1
#
DISCID=09105713
DTITLE=Candeeiro - Série Duplo-Buenas Amigo e Os Quatro Gaudérios
DYEAR=2004
DGENRE=Gaúchas
TTITLE0=Alambrador
TTITLE1=Festança do Bugio
TTITLE2=Lamento de um Velho Pescador
TTITLE3=Linha da Vida
TTITLE4=Morena Luxuosa
TTITLE5=Buenas Amigo!
TTITLE6=Sonhos
TTITLE7=Cantador dos Cafundó
TTITLE8=Lourinha
TTITLE9=Porkaria
TTITLE10=Vem chegando o Gaiteiro
TTITLE11=Agarradinho
TTITLE12=Amada Parceira
TTITLE13=Largo tudo pra te ver
TTITLE14=És Linda
TTITLE15=Zóio Verde
TTITLE16=Os Quatro Gaiteiros
TTITLE17=Milonga da Chuva
TTITLE18=Cancha reta
EXTD=
EXTT0=
EXTT1=
EXTT2=
EXTT3=
EXTT4=
EXTT5=
EXTT6=
EXTT7=
EXTT8=
EXTT9=
EXTT10=
EXTT11=
EXTT12=
EXTT13=
EXTT14=
EXTT15=
EXTT16=
EXTT17=
EXTT18=
PLAYORDER=
